<?xml version="1.0" encoding="utf-8"?>
<!-- Generator: Adobe Illustrator 21.0.0, SVG Export Plug-In . SVG Version: 6.00 Build 0)  -->
<svg version="1.1" id="Layer_1" xmlns="http://www.w3.org/2000/svg" xmlns:xlink="http://www.w3.org/1999/xlink" x="0px" y="0px"
	 viewBox="0 0 200 95.3" style="enable-background:new 0 0 200 95.3;" xml:space="preserve">
<style type="text/css">
	.st0{fill:none;}
	.st1{clip-path:url(#SVGID_2_);}
	.st2{fill:#1D1D1B;}
	.st3{fill:#C6093B;}
</style>
<title>pr-skul</title>
<g id="Layer_2">
	<g id="Layer_1-2">
		<rect x="0.2" class="st0" width="199.8" height="95.3"/>
		<g>
			<g>
				<defs>
					<rect id="SVGID_1_" y="16" width="158.3" height="63.3"/>
				</defs>
				<clipPath id="SVGID_2_">
					<use xlink:href="#SVGID_1_"  style="overflow:visible;"/>
				</clipPath>
				<g class="st1">
					<path d="M31.3,51.8c-0.2-0.4-0.7-0.7-1.1-0.7c-0.6,0-1.1,0.4-1.1,1l0,0c0,0.5,0.6,0.8,1,1l0.4,0.2c0.9,0.4,1.6,0.8,1.6,1.8
						c-0.1,1.2-1.1,2-2.2,2C29,57,28.2,56.4,28,55.5l0.7-0.2c0.1,0.7,0.6,1.2,1.3,1.2c0.7,0,1.3-0.5,1.4-1.2c0-0.7-0.6-1-1.2-1.3
						l-0.4-0.2c-0.8-0.3-1.4-0.7-1.4-1.6c0-0.9,0.8-1.7,1.8-1.6c0,0,0,0,0.1,0c0.7,0,1.4,0.4,1.7,1L31.3,51.8z"/>
					<path d="M35.7,50.5h3.4v0.7h-2.7v1.9H39v0.7h-2.6v2.5h2.7V57h-3.4V50.5z"/>
					<path d="M43.5,56.9h-0.7v-6.3h1c1.2,0,2.4,0.3,2.4,1.7c0,0.9-0.7,1.7-1.6,1.7l0,0l2.1,2.8h-0.9l-2-2.8h-0.2L43.5,56.9
						L43.5,56.9z M43.5,53.5h0.2c0.8,0,1.7-0.2,1.7-1.1c0-1-0.8-1.1-1.7-1.1h-0.2V53.5z"/>
					<path d="M52,55.4l1.9-4.8h0.8L52,57.3l-2.7-6.7h0.8L52,55.4z"/>
					<path d="M58.6,56.9h-0.7v-6.3h0.7V56.9z"/>
					<path d="M67.4,51.9c-0.5-0.5-1.3-0.8-2-0.8c-1.4,0-2.6,1.1-2.7,2.6c0,1.4,1.1,2.6,2.6,2.7h0.1c0.7,0,1.5-0.3,2-0.8v0.9
						c-0.6,0.4-1.3,0.6-2,0.6c-1.8,0.1-3.3-1.3-3.4-3.1c-0.1-1.8,1.3-3.3,3.1-3.4c0.1,0,0.2,0,0.3,0c0.7,0,1.4,0.2,2,0.6V51.9z"/>
					<path d="M71.1,50.5h3.4v0.7h-2.7v1.9h2.6v0.7h-2.6v2.5h2.7V57h-3.4V50.5z"/>
					<path d="M78.2,50.5h1.2c0.9-0.1,1.8,0.2,2.6,0.8c1.3,1.1,1.5,3.2,0.3,4.5c-0.1,0.1-0.2,0.2-0.3,0.3c-0.7,0.6-1.7,0.9-2.6,0.8
						h-1.2V50.5z M79.5,56.2c0.8,0.1,1.5-0.2,2.1-0.7c1-0.9,1.1-2.5,0.2-3.6c-0.1-0.1-0.1-0.1-0.2-0.2c-0.6-0.5-1.3-0.7-2-0.6H79v5
						L79.5,56.2z"/>
					<path d="M94.7,51.8c-0.2-0.4-0.7-0.7-1.1-0.7c-0.6,0-1.1,0.4-1.1,1l0,0c0,0.5,0.6,0.8,1,1l0.4,0.2c0.9,0.4,1.6,0.8,1.6,1.8
						c-0.1,1.2-1.1,2-2.2,2c-0.9-0.1-1.7-0.7-1.9-1.6l0.7-0.2c0.1,0.7,0.6,1.2,1.3,1.2c0.7,0,1.3-0.5,1.4-1.2c0-0.7-0.6-1-1.2-1.3
						l-0.4-0.2c-0.8-0.3-1.4-0.7-1.4-1.6c0-0.9,0.8-1.7,1.8-1.6c0,0,0,0,0.1,0c0.7,0,1.4,0.4,1.7,1L94.7,51.8z"/>
					<path d="M99.8,54.3c-0.1,0.5,0,1,0.3,1.4s0.8,0.6,1.3,0.6s1-0.2,1.3-0.6c0.3-0.4,0.4-0.9,0.3-1.5v-3.8h0.7v4
						c0.1,0.6-0.1,1.3-0.6,1.8s-1.1,0.7-1.8,0.7c-0.6,0-1.2-0.2-1.7-0.6c-0.5-0.5-0.7-1.2-0.6-1.8v-4h0.7L99.8,54.3z"/>
					<path d="M108.3,56.9h-0.7v-6.3h0.7V56.9z"/>
					<path d="M113.8,56.9H113v-5.7h-1.6v-0.7h3.9v0.7h-1.6L113.8,56.9L113.8,56.9z"/>
					<path d="M118.6,50.5h3.4v0.7h-2.7v1.9h2.6v0.7h-2.6v2.5h2.7V57h-3.4V50.5z"/>
					<path d="M128.7,51.8c-0.2-0.4-0.7-0.7-1.1-0.7c-0.6,0-1.1,0.4-1.1,1l0,0c0,0.5,0.6,0.8,1,1l0.4,0.2c0.9,0.4,1.6,0.8,1.6,1.8
						c-0.1,1.2-1.1,2-2.2,2c-0.9-0.1-1.7-0.7-1.9-1.6l0.7-0.2c0.1,0.7,0.6,1.2,1.3,1.2s1.3-0.5,1.4-1.2c0-0.7-0.6-1-1.2-1.3
						l-0.4-0.2c-0.8-0.3-1.4-0.7-1.4-1.6c0-0.9,0.8-1.7,1.8-1.6c0,0,0,0,0.1,0c0.7,0,1.4,0.4,1.7,1L128.7,51.8z"/>
					<path class="st2" d="M11.7,40.4v-5.1c0.2,0,0.6,0,1.1,0s0.9,0,1.2,0c1.9,0.1,3.9-0.4,5.6-1.3c1.4-0.9,2.3-2.5,2.2-4.1
						c0-1.5-0.7-2.8-1.9-3.6c-1.8-1-3.8-1.5-5.8-1.4h-8v0.5c0.7,0,1.4,0.2,2,0.6c0.4,0.6,0.5,1.2,0.5,1.9V40
						c0.1,0.8-0.1,1.5-0.4,2.2c-0.6,0.4-1.3,0.7-2.1,0.6v0.7h8.4v-0.7c-0.8,0-1.6-0.2-2.2-0.5C11.8,42.1,11.7,41.4,11.7,40.4z
						 M11.7,26.9c0-0.3,0-0.5,0.2-0.8c0.3-0.2,0.7-0.2,1.1-0.2c1,0,2.1,0.1,3,0.5c1.4,0.6,2.3,2,2.2,3.5c0,1.8-0.7,3.1-2,3.7
						c-1,0.4-2,0.6-3,0.5c-0.1,0-0.3,0-0.5,0s-0.5,0-1-0.1L11.7,26.9z M89.5,42.4c-0.4-0.2-0.7-0.5-1-0.9L83,34.7
						c1.3-0.2,2.4-0.7,3.4-1.4c0.9-0.8,1.5-2,1.4-3.3c0.1-2-1.2-3.8-3.1-4.3c-1.3-0.4-2.6-0.7-4-0.6H73v0.8h0.1
						c0.6,0,1.3,0.2,1.8,0.5c0.3,0.5,0.5,1.2,0.4,1.8v11.9c0,1.4-0.2,1.9-0.4,2.1c-0.6,0.4-1.4,0.6-2.2,0.6
						c-0.9,0.1-1.8-0.1-2.5-0.6c-0.9-0.7-1.7-1.5-2.4-2.3L61.4,33c0,0,3.8-3.6,5.2-4.8c1.2-1.3,2.9-2.1,4.7-2.1v-0.8h-7.5v0.8
						c1.2,0,2.1,0.2,1.9,1c-0.1,0.5-0.9,1.2-2.9,3.2c-1.1,1-2.5,2.3-4.3,3.8v-5.6c-0.1-0.6,0.1-1.3,0.4-1.8c0.6-0.4,1.3-0.5,2-0.5
						H61v-0.8h-8.1V26H53c0.7,0,1.4,0.1,1.9,0.5c0.2,0.2,0.4,0.6,0.4,1.8v11.9c0,1.4-0.2,1.9-0.4,2.1c-0.3,0.4-0.6,0.5-1.5,0.5
						c-0.5,0-1-0.1-1.5-0.4c-0.4-0.2-0.7-0.5-1-0.9l-5.5-6.8c1.3-0.2,2.4-0.7,3.4-1.4c0.9-0.8,1.5-2,1.4-3.3c0.1-2-1.2-3.8-3.1-4.3
						c-1.3-0.4-2.6-0.7-4-0.6h-7.8v0.8h0.1c0.6,0,1.3,0.2,1.8,0.5c0.3,0.5,0.5,1.2,0.4,1.8v11.9c0,2-0.5,2.6-1.5,2.6
						c-0.4,0-0.8-0.2-1.2-0.4c-0.5-0.6-0.8-1.2-1.1-1.9l-6.7-15.3h-1L19,43.3l-0.1,0.2h1.7v-0.1l2.3-5.8h7c0.2,0.5,1.4,3.4,1.7,4.1
						c0.3,1,1.3,1.8,2.3,1.8h9.6v-0.8h-0.1c-0.7,0-1.3-0.2-1.9-0.5c-0.2-0.2-0.4-0.6-0.4-1.8v-5.3l1-0.1c0.5,0.7,5.2,6.5,5.8,7.1
						c0.7,0.8,1.7,1.3,2.8,1.4h10.4v-0.8H61c-0.7,0-1.3-0.2-1.9-0.5c-0.2-0.2-0.4-0.6-0.4-1.8v-4.9l0.7-0.6c0.8,0.9,5.6,6.1,6.1,6.6
						c0.6,0.6,2,2,3.8,2H81v-0.8h-0.1c-0.7,0-1.3-0.2-1.9-0.5c-0.2-0.2-0.4-0.6-0.4-1.8v-5.3l1-0.1c0.5,0.7,5.2,6.5,5.8,7.1
						c0.7,0.8,1.7,1.3,2.8,1.4H91v-0.8h-0.1C90.4,42.7,89.9,42.6,89.5,42.4z M23.5,36.2l2.9-7l2.9,7H23.5z M41.1,33.8v-6.6
						c0-0.3,0.1-0.6,0.2-0.7c0.4-0.1,0.9-0.2,1.3-0.1c0.9,0,1.9,0.1,2.7,0.5c1.2,0.5,2,1.8,1.9,3.1c0.1,1.4-0.7,2.8-2.1,3.2
						C43.9,33.6,42.5,33.8,41.1,33.8z M58.7,33.9L58.7,33.9L58.7,33.9L58.7,33.9z M78.5,33.8v-6.6c0-0.3,0.1-0.6,0.2-0.7
						c0.4-0.1,0.9-0.2,1.3-0.1c0.9,0,1.9,0.1,2.7,0.5c1.2,0.5,2,1.8,1.9,3.1c0.1,1.4-0.7,2.8-2.1,3.2C81.2,33.6,79.8,33.8,78.5,33.8
						z M98.1,24.8c-2.3-0.1-4.6,0.8-6.3,2.5c-1.9,1.9-2.9,4.5-2.8,7.1c-0.1,2.6,0.9,5.1,2.6,6.9c1.7,1.8,4,2.7,6.5,2.6
						c2.3,0,4.5-0.8,6.2-2.4c1.9-1.9,3-4.5,2.9-7.2c0.1-2.7-0.9-5.2-2.8-7.1C102.7,25.6,100.5,24.7,98.1,24.8z M102.1,40.7
						c-1,1.2-2.5,2-4,2c-1.6,0-3.1-0.7-4.1-2c-1.1-1.3-1.7-3.5-1.7-6.3s0.6-5,1.7-6.3c1-1.3,2.5-2,4-2c1.6,0,3,0.7,4,1.9
						c1.1,1.3,1.7,3.4,1.7,6.4C103.8,37.3,103.2,39.4,102.1,40.7L102.1,40.7z M116.7,42.3c-0.2-0.2-0.5-0.6-0.5-1.9v-5.3l6.4-9.8
						l0.2-0.2H121v0.1l-5.4,8.2c-0.7-1-3.7-5.5-4.2-6.1l-0.1-0.1c-0.6-0.8-1.4-2-2.8-2h-3.3V26h0.1c0.7,0,1.3,0.3,1.7,0.8
						c0.9,1.1,1.8,2.2,2.6,3.5l3.6,5.2v4.7c0,1.4-0.2,1.9-0.4,2.1c-0.2,0.2-0.7,0.4-2.2,0.5h-0.1v0.8h8.6v-0.8H119
						C118.2,42.8,117.4,42.6,116.7,42.3L116.7,42.3z M152.7,38.5L152.7,38.5c-0.8,1.7-1.6,2.7-2.5,3.1c-0.8,0.4-2.5,0.6-4.9,0.6
						c-0.6,0-1,0-1.3,0c-0.2,0-0.4,0-0.6-0.1c-0.2,0-0.4-0.1-0.6-0.3c-0.1-0.2-0.1-0.4-0.1-0.6V28.1c-0.1-0.6,0.1-1.2,0.5-1.7
						c0.6-0.3,1.3-0.5,1.9-0.5h0.1v-0.8h-8V26h0.1c0.7,0,1.3,0.1,1.9,0.5c0.3,0.5,0.5,1.2,0.4,1.8v12.2c0,1.7-0.7,2.3-1.9,2.3
						c-0.5,0-1-0.1-1.4-0.4c-0.5-0.6-0.8-1.2-1.1-1.9l-6.7-15.3h-1L120,43.3l-0.1,0.2h1.7v-0.1l2.3-5.8h7c0.2,0.5,1.4,3.4,1.7,4.1
						c0.3,1,1.3,1.8,2.3,1.8h17.2v-0.1l1.3-4.7l0.1-0.2H152.7z M124.6,36.2l2.9-7l2.9,7H124.6z"/>
					<polygon class="st3" points="-31.5,63.3 -31.5,61.9 191.6,61.9 191.6,63.3 					"/>
					<path class="st2" d="M38.3,68.1h1l-3.1,3.1l3.2,3.6h-1l-2.7-3.1l-0.2,0.2v2.9h-0.7v-6.7h0.7V71L38.3,68.1z"/>
					<path class="st2" d="M43.5,72.1c-0.1,0.5,0,1,0.3,1.5c0.3,0.4,0.8,0.6,1.3,0.6s1-0.2,1.3-0.6c0.3-0.5,0.4-1,0.3-1.5v-4h0.7v4.2
						c0.1,0.7-0.1,1.3-0.6,1.8s-1.1,0.8-1.8,0.8c-0.6,0-1.3-0.2-1.7-0.7c-0.5-0.5-0.7-1.2-0.7-1.9v-4.2h0.7L43.5,72.1z"/>
					<path class="st2" d="M52.4,72.9l-0.8,1.9h-0.8l3.1-7l3,7h-0.8l-0.8-1.9H52.4z M53.9,69.5l-1.1,2.7H55L53.9,69.5z"/>
					<path class="st2" d="M61,74.1h1.8v0.7h-2.6v-6.7H61V74.1z"/>
					<path class="st2" d="M67.2,72.9l-0.8,1.9h-0.8l3.1-7l3,7h-0.8l-0.8-1.9H67.2z M68.7,69.5l-1.1,2.7h2.3L68.7,69.5z"/>
					<path class="st2" d="M81.2,74.1H83v0.7h-2.6v-6.7h0.7L81.2,74.1L81.2,74.1z"/>
					<path class="st2" d="M87.1,72.1c-0.1,0.5,0,1,0.3,1.5c0.3,0.4,0.8,0.6,1.3,0.6s1-0.2,1.3-0.6c0.3-0.5,0.4-1,0.3-1.5v-4H91v4.2
						c0.1,0.7-0.1,1.3-0.6,1.8s-1.1,0.8-1.8,0.8c-0.6,0-1.3-0.2-1.7-0.7c-0.5-0.5-0.7-1.2-0.7-1.9v-4.2h0.7L87.1,72.1z"/>
					<path class="st2" d="M95.9,67.7l2.4,5.6l2.4-5.6l1.4,7h-0.8l-0.9-4.5l0,0l-2,4.8l-2.1-4.8l0,0l-0.9,4.5h-0.8L95.9,67.7z"/>
					<path class="st2" d="M106.4,74.8h-0.7v-6.7h1.1c0.6-0.1,1.2,0.1,1.7,0.4c0.5,0.4,0.8,0.9,0.8,1.5c0,0.5-0.2,1.1-0.6,1.4
						c-0.5,0.3-1,0.5-1.6,0.4h-0.5L106.4,74.8z M106.4,71.1h0.5c0.8,0,1.5-0.2,1.5-1.2c0-1.1-0.9-1.2-1.7-1.2h-0.3V71.1z"/>
					<path class="st2" d="M113.5,72.1c-0.1,0.5,0,1,0.3,1.5c0.3,0.4,0.8,0.6,1.3,0.6s1-0.2,1.3-0.6c0.3-0.5,0.4-1,0.3-1.5v-4h0.7
						v4.2c0.1,0.7-0.1,1.3-0.6,1.8s-1.1,0.8-1.8,0.8c-0.6,0-1.3-0.2-1.7-0.7c-0.5-0.5-0.7-1.2-0.7-1.9v-4.2h0.7L113.5,72.1z"/>
					<path class="st2" d="M122.2,74.8h-0.7v-6.7h1c1.3,0,2.4,0.3,2.4,1.8c0.1,1-0.7,1.8-1.6,1.8l0,0l2.1,3h-0.9l-2-2.9h-0.2
						L122.2,74.8z M122.2,71.2h0.2c0.8,0,1.7-0.2,1.7-1.2c0-1.1-0.8-1.2-1.7-1.2h-0.2V71.2z"/>
				</g>
			</g>
		</g>
	</g>
</g>
</svg>
